<mxfile host="app.diagrams.net" modified="2023-06-27T07:48:46.145Z" agent="Mozilla/5.0 (Windows NT 10.0; Win64; x64) AppleWebKit/537.36 (KHTML, like Gecko) Chrome/114.0.0.0 Safari/537.36 Edg/114.0.1823.51" etag="nZXsVN_vAdFjdDD4822E" version="21.5.1" type="device">
  <diagram name="Page-1" id="Y5JtWHxv7Y_PkE-OMQh9">
    <mxGraphModel dx="2476" dy="1280" grid="1" gridSize="10" guides="1" tooltips="1" connect="1" arrows="1" fold="1" page="1" pageScale="1" pageWidth="850" pageHeight="1100" math="0" shadow="0">
      <root>
        <mxCell id="0" />
        <mxCell id="1" parent="0" />
        <mxCell id="dBR_JviWxrnZ7EOf8OUJ-3" value="" style="edgeStyle=orthogonalEdgeStyle;rounded=0;orthogonalLoop=1;jettySize=auto;html=1;" edge="1" parent="1" source="dBR_JviWxrnZ7EOf8OUJ-1" target="dBR_JviWxrnZ7EOf8OUJ-2">
          <mxGeometry relative="1" as="geometry" />
        </mxCell>
        <mxCell id="dBR_JviWxrnZ7EOf8OUJ-1" value="AppMaIN" style="rounded=0;whiteSpace=wrap;html=1;strokeColor=#F0054B;" vertex="1" parent="1">
          <mxGeometry x="50" y="40" width="120" height="60" as="geometry" />
        </mxCell>
        <mxCell id="dBR_JviWxrnZ7EOf8OUJ-7" value="" style="edgeStyle=orthogonalEdgeStyle;rounded=0;orthogonalLoop=1;jettySize=auto;html=1;" edge="1" parent="1" source="dBR_JviWxrnZ7EOf8OUJ-2" target="dBR_JviWxrnZ7EOf8OUJ-6">
          <mxGeometry relative="1" as="geometry" />
        </mxCell>
        <mxCell id="dBR_JviWxrnZ7EOf8OUJ-2" value="Route" style="rounded=0;whiteSpace=wrap;html=1;" vertex="1" parent="1">
          <mxGeometry x="210" y="40" width="120" height="60" as="geometry" />
        </mxCell>
        <mxCell id="dBR_JviWxrnZ7EOf8OUJ-9" value="" style="edgeStyle=orthogonalEdgeStyle;rounded=0;orthogonalLoop=1;jettySize=auto;html=1;" edge="1" parent="1" source="dBR_JviWxrnZ7EOf8OUJ-6" target="dBR_JviWxrnZ7EOf8OUJ-8">
          <mxGeometry relative="1" as="geometry" />
        </mxCell>
        <mxCell id="dBR_JviWxrnZ7EOf8OUJ-6" value="RouteChecker&lt;br&gt;Navigator" style="rounded=0;whiteSpace=wrap;html=1;strokeColor=#6078F0;" vertex="1" parent="1">
          <mxGeometry x="210" y="130" width="120" height="60" as="geometry" />
        </mxCell>
        <mxCell id="dBR_JviWxrnZ7EOf8OUJ-11" value="" style="edgeStyle=orthogonalEdgeStyle;rounded=0;orthogonalLoop=1;jettySize=auto;html=1;" edge="1" parent="1" source="dBR_JviWxrnZ7EOf8OUJ-8" target="dBR_JviWxrnZ7EOf8OUJ-10">
          <mxGeometry relative="1" as="geometry" />
        </mxCell>
        <mxCell id="dBR_JviWxrnZ7EOf8OUJ-13" value="" style="edgeStyle=orthogonalEdgeStyle;rounded=0;orthogonalLoop=1;jettySize=auto;html=1;" edge="1" parent="1" source="dBR_JviWxrnZ7EOf8OUJ-8" target="dBR_JviWxrnZ7EOf8OUJ-12">
          <mxGeometry relative="1" as="geometry" />
        </mxCell>
        <mxCell id="dBR_JviWxrnZ7EOf8OUJ-8" value="AuthProvider" style="rounded=0;whiteSpace=wrap;html=1;" vertex="1" parent="1">
          <mxGeometry x="370" y="130" width="120" height="60" as="geometry" />
        </mxCell>
        <mxCell id="dBR_JviWxrnZ7EOf8OUJ-23" value="" style="edgeStyle=orthogonalEdgeStyle;rounded=0;orthogonalLoop=1;jettySize=auto;html=1;" edge="1" parent="1" source="dBR_JviWxrnZ7EOf8OUJ-10" target="dBR_JviWxrnZ7EOf8OUJ-22">
          <mxGeometry relative="1" as="geometry" />
        </mxCell>
        <mxCell id="dBR_JviWxrnZ7EOf8OUJ-10" value="MainStack" style="rounded=0;whiteSpace=wrap;html=1;" vertex="1" parent="1">
          <mxGeometry x="590" y="130" width="120" height="60" as="geometry" />
        </mxCell>
        <mxCell id="dBR_JviWxrnZ7EOf8OUJ-15" value="" style="edgeStyle=orthogonalEdgeStyle;rounded=0;orthogonalLoop=1;jettySize=auto;html=1;entryX=0;entryY=0.5;entryDx=0;entryDy=0;" edge="1" parent="1" source="dBR_JviWxrnZ7EOf8OUJ-12" target="dBR_JviWxrnZ7EOf8OUJ-14">
          <mxGeometry relative="1" as="geometry" />
        </mxCell>
        <mxCell id="dBR_JviWxrnZ7EOf8OUJ-12" value="AuthChecker&lt;br&gt;Navigator" style="rounded=0;whiteSpace=wrap;html=1;strokeColor=#6078F0;" vertex="1" parent="1">
          <mxGeometry x="370" y="230" width="120" height="60" as="geometry" />
        </mxCell>
        <mxCell id="dBR_JviWxrnZ7EOf8OUJ-17" value="" style="edgeStyle=orthogonalEdgeStyle;rounded=0;orthogonalLoop=1;jettySize=auto;html=1;entryX=0;entryY=0.5;entryDx=0;entryDy=0;exitX=0.5;exitY=1;exitDx=0;exitDy=0;" edge="1" parent="1" source="dBR_JviWxrnZ7EOf8OUJ-12" target="dBR_JviWxrnZ7EOf8OUJ-16">
          <mxGeometry relative="1" as="geometry">
            <mxPoint x="430" y="330" as="sourcePoint" />
          </mxGeometry>
        </mxCell>
        <mxCell id="dBR_JviWxrnZ7EOf8OUJ-14" value="Login" style="rounded=0;whiteSpace=wrap;html=1;strokeColor=#4AF0A8;" vertex="1" parent="1">
          <mxGeometry x="450" y="320" width="120" height="60" as="geometry" />
        </mxCell>
        <mxCell id="dBR_JviWxrnZ7EOf8OUJ-19" value="" style="edgeStyle=orthogonalEdgeStyle;rounded=0;orthogonalLoop=1;jettySize=auto;html=1;exitX=0.5;exitY=1;exitDx=0;exitDy=0;entryX=0;entryY=0.5;entryDx=0;entryDy=0;" edge="1" parent="1" source="dBR_JviWxrnZ7EOf8OUJ-12" target="dBR_JviWxrnZ7EOf8OUJ-18">
          <mxGeometry relative="1" as="geometry" />
        </mxCell>
        <mxCell id="dBR_JviWxrnZ7EOf8OUJ-16" value="Register" style="rounded=0;whiteSpace=wrap;html=1;strokeColor=#4AF0A8;" vertex="1" parent="1">
          <mxGeometry x="450" y="400" width="120" height="60" as="geometry" />
        </mxCell>
        <mxCell id="dBR_JviWxrnZ7EOf8OUJ-18" value="Forgotpassword" style="rounded=0;whiteSpace=wrap;html=1;strokeColor=#4AF0A8;" vertex="1" parent="1">
          <mxGeometry x="450" y="480" width="120" height="60" as="geometry" />
        </mxCell>
        <mxCell id="dBR_JviWxrnZ7EOf8OUJ-25" value="" style="edgeStyle=orthogonalEdgeStyle;rounded=0;orthogonalLoop=1;jettySize=auto;html=1;entryX=0;entryY=0.5;entryDx=0;entryDy=0;" edge="1" parent="1" source="dBR_JviWxrnZ7EOf8OUJ-22" target="dBR_JviWxrnZ7EOf8OUJ-24">
          <mxGeometry relative="1" as="geometry" />
        </mxCell>
        <mxCell id="dBR_JviWxrnZ7EOf8OUJ-22" value="MainChecker&lt;br&gt;Navigator" style="rounded=0;whiteSpace=wrap;html=1;strokeColor=#6078F0;" vertex="1" parent="1">
          <mxGeometry x="590" y="230" width="120" height="60" as="geometry" />
        </mxCell>
        <mxCell id="dBR_JviWxrnZ7EOf8OUJ-27" value="" style="edgeStyle=orthogonalEdgeStyle;rounded=0;orthogonalLoop=1;jettySize=auto;html=1;entryX=0;entryY=0.5;entryDx=0;entryDy=0;exitX=0.5;exitY=1;exitDx=0;exitDy=0;" edge="1" parent="1" source="dBR_JviWxrnZ7EOf8OUJ-22" target="dBR_JviWxrnZ7EOf8OUJ-26">
          <mxGeometry relative="1" as="geometry" />
        </mxCell>
        <mxCell id="dBR_JviWxrnZ7EOf8OUJ-33" value="" style="edgeStyle=orthogonalEdgeStyle;rounded=0;orthogonalLoop=1;jettySize=auto;html=1;" edge="1" parent="1" source="dBR_JviWxrnZ7EOf8OUJ-24" target="dBR_JviWxrnZ7EOf8OUJ-32">
          <mxGeometry relative="1" as="geometry" />
        </mxCell>
        <mxCell id="dBR_JviWxrnZ7EOf8OUJ-24" value="DashboardStack" style="rounded=0;whiteSpace=wrap;html=1;strokeColor=#DAF06C;" vertex="1" parent="1">
          <mxGeometry x="670" y="330" width="120" height="60" as="geometry" />
        </mxCell>
        <mxCell id="dBR_JviWxrnZ7EOf8OUJ-29" value="" style="edgeStyle=orthogonalEdgeStyle;rounded=0;orthogonalLoop=1;jettySize=auto;html=1;exitX=0.5;exitY=1;exitDx=0;exitDy=0;entryX=0;entryY=0.5;entryDx=0;entryDy=0;" edge="1" parent="1" source="dBR_JviWxrnZ7EOf8OUJ-22" target="dBR_JviWxrnZ7EOf8OUJ-28">
          <mxGeometry relative="1" as="geometry" />
        </mxCell>
        <mxCell id="dBR_JviWxrnZ7EOf8OUJ-39" value="" style="edgeStyle=orthogonalEdgeStyle;rounded=0;orthogonalLoop=1;jettySize=auto;html=1;" edge="1" parent="1" source="dBR_JviWxrnZ7EOf8OUJ-26" target="dBR_JviWxrnZ7EOf8OUJ-38">
          <mxGeometry relative="1" as="geometry" />
        </mxCell>
        <mxCell id="dBR_JviWxrnZ7EOf8OUJ-26" value="ForecastStack" style="rounded=0;whiteSpace=wrap;html=1;strokeColor=#DAF06C;" vertex="1" parent="1">
          <mxGeometry x="680" y="590" width="120" height="60" as="geometry" />
        </mxCell>
        <mxCell id="dBR_JviWxrnZ7EOf8OUJ-31" value="" style="edgeStyle=orthogonalEdgeStyle;rounded=0;orthogonalLoop=1;jettySize=auto;html=1;exitX=0.5;exitY=1;exitDx=0;exitDy=0;entryX=0;entryY=0.5;entryDx=0;entryDy=0;" edge="1" parent="1" source="dBR_JviWxrnZ7EOf8OUJ-22" target="dBR_JviWxrnZ7EOf8OUJ-30">
          <mxGeometry relative="1" as="geometry" />
        </mxCell>
        <mxCell id="dBR_JviWxrnZ7EOf8OUJ-41" value="" style="edgeStyle=orthogonalEdgeStyle;rounded=0;orthogonalLoop=1;jettySize=auto;html=1;" edge="1" parent="1" source="dBR_JviWxrnZ7EOf8OUJ-28" target="dBR_JviWxrnZ7EOf8OUJ-40">
          <mxGeometry relative="1" as="geometry" />
        </mxCell>
        <mxCell id="dBR_JviWxrnZ7EOf8OUJ-28" value="PlantStackMain" style="rounded=0;whiteSpace=wrap;html=1;strokeColor=#DAF06C;" vertex="1" parent="1">
          <mxGeometry x="680" y="710" width="120" height="60" as="geometry" />
        </mxCell>
        <mxCell id="dBR_JviWxrnZ7EOf8OUJ-68" value="" style="edgeStyle=orthogonalEdgeStyle;rounded=0;orthogonalLoop=1;jettySize=auto;html=1;" edge="1" parent="1" source="dBR_JviWxrnZ7EOf8OUJ-30" target="dBR_JviWxrnZ7EOf8OUJ-67">
          <mxGeometry relative="1" as="geometry" />
        </mxCell>
        <mxCell id="dBR_JviWxrnZ7EOf8OUJ-30" value="AccountPage" style="rounded=0;whiteSpace=wrap;html=1;strokeColor=#DAF06C;" vertex="1" parent="1">
          <mxGeometry x="680" y="1130" width="120" height="60" as="geometry" />
        </mxCell>
        <mxCell id="dBR_JviWxrnZ7EOf8OUJ-35" value="" style="edgeStyle=orthogonalEdgeStyle;rounded=0;orthogonalLoop=1;jettySize=auto;html=1;entryX=0;entryY=0.5;entryDx=0;entryDy=0;" edge="1" parent="1" source="dBR_JviWxrnZ7EOf8OUJ-32" target="dBR_JviWxrnZ7EOf8OUJ-34">
          <mxGeometry relative="1" as="geometry" />
        </mxCell>
        <mxCell id="dBR_JviWxrnZ7EOf8OUJ-32" value="DashboardChecker&lt;br&gt;Navigator" style="rounded=0;whiteSpace=wrap;html=1;strokeColor=#6078F0;" vertex="1" parent="1">
          <mxGeometry x="820" y="330" width="130" height="60" as="geometry" />
        </mxCell>
        <mxCell id="dBR_JviWxrnZ7EOf8OUJ-37" value="" style="edgeStyle=orthogonalEdgeStyle;rounded=0;orthogonalLoop=1;jettySize=auto;html=1;exitX=0.5;exitY=1;exitDx=0;exitDy=0;entryX=0;entryY=0.5;entryDx=0;entryDy=0;" edge="1" parent="1" source="dBR_JviWxrnZ7EOf8OUJ-32" target="dBR_JviWxrnZ7EOf8OUJ-36">
          <mxGeometry relative="1" as="geometry" />
        </mxCell>
        <mxCell id="dBR_JviWxrnZ7EOf8OUJ-34" value="Dashboard" style="rounded=0;whiteSpace=wrap;html=1;strokeColor=#4AF0A8;" vertex="1" parent="1">
          <mxGeometry x="910" y="420" width="120" height="60" as="geometry" />
        </mxCell>
        <mxCell id="dBR_JviWxrnZ7EOf8OUJ-36" value="PNDS" style="rounded=0;whiteSpace=wrap;html=1;strokeColor=#4AF0A8;" vertex="1" parent="1">
          <mxGeometry x="910" y="510" width="120" height="60" as="geometry" />
        </mxCell>
        <mxCell id="dBR_JviWxrnZ7EOf8OUJ-38" value="ForecastPage" style="rounded=0;whiteSpace=wrap;html=1;strokeColor=#4AF0A8;" vertex="1" parent="1">
          <mxGeometry x="830" y="590" width="120" height="60" as="geometry" />
        </mxCell>
        <mxCell id="dBR_JviWxrnZ7EOf8OUJ-43" value="" style="edgeStyle=orthogonalEdgeStyle;rounded=0;orthogonalLoop=1;jettySize=auto;html=1;entryX=0;entryY=0.5;entryDx=0;entryDy=0;" edge="1" parent="1" source="dBR_JviWxrnZ7EOf8OUJ-40" target="dBR_JviWxrnZ7EOf8OUJ-42">
          <mxGeometry relative="1" as="geometry" />
        </mxCell>
        <mxCell id="dBR_JviWxrnZ7EOf8OUJ-40" value="PlantChecker&lt;br&gt;Navigator" style="rounded=0;whiteSpace=wrap;html=1;" vertex="1" parent="1">
          <mxGeometry x="830" y="710" width="120" height="60" as="geometry" />
        </mxCell>
        <mxCell id="dBR_JviWxrnZ7EOf8OUJ-45" value="" style="edgeStyle=orthogonalEdgeStyle;rounded=0;orthogonalLoop=1;jettySize=auto;html=1;entryX=0;entryY=0.5;entryDx=0;entryDy=0;exitX=0.5;exitY=1;exitDx=0;exitDy=0;" edge="1" parent="1" source="dBR_JviWxrnZ7EOf8OUJ-40" target="dBR_JviWxrnZ7EOf8OUJ-44">
          <mxGeometry relative="1" as="geometry" />
        </mxCell>
        <mxCell id="dBR_JviWxrnZ7EOf8OUJ-47" value="" style="edgeStyle=orthogonalEdgeStyle;rounded=0;orthogonalLoop=1;jettySize=auto;html=1;" edge="1" parent="1" source="dBR_JviWxrnZ7EOf8OUJ-42" target="dBR_JviWxrnZ7EOf8OUJ-46">
          <mxGeometry relative="1" as="geometry" />
        </mxCell>
        <mxCell id="dBR_JviWxrnZ7EOf8OUJ-42" value="PlantDashboard" style="rounded=0;whiteSpace=wrap;html=1;" vertex="1" parent="1">
          <mxGeometry x="910" y="800" width="120" height="60" as="geometry" />
        </mxCell>
        <mxCell id="dBR_JviWxrnZ7EOf8OUJ-55" value="" style="edgeStyle=orthogonalEdgeStyle;rounded=0;orthogonalLoop=1;jettySize=auto;html=1;exitX=0.5;exitY=1;exitDx=0;exitDy=0;entryX=0;entryY=0.5;entryDx=0;entryDy=0;" edge="1" parent="1" source="dBR_JviWxrnZ7EOf8OUJ-51" target="dBR_JviWxrnZ7EOf8OUJ-54">
          <mxGeometry relative="1" as="geometry" />
        </mxCell>
        <mxCell id="dBR_JviWxrnZ7EOf8OUJ-57" value="" style="edgeStyle=orthogonalEdgeStyle;rounded=0;orthogonalLoop=1;jettySize=auto;html=1;" edge="1" parent="1" source="dBR_JviWxrnZ7EOf8OUJ-44" target="dBR_JviWxrnZ7EOf8OUJ-56">
          <mxGeometry relative="1" as="geometry" />
        </mxCell>
        <mxCell id="dBR_JviWxrnZ7EOf8OUJ-44" value="PlantNew" style="rounded=0;whiteSpace=wrap;html=1;" vertex="1" parent="1">
          <mxGeometry x="910" y="880" width="120" height="60" as="geometry" />
        </mxCell>
        <mxCell id="dBR_JviWxrnZ7EOf8OUJ-46" value="DashboardPage" style="rounded=0;whiteSpace=wrap;html=1;strokeColor=#4AF0A8;" vertex="1" parent="1">
          <mxGeometry x="1070" y="800" width="120" height="60" as="geometry" />
        </mxCell>
        <mxCell id="dBR_JviWxrnZ7EOf8OUJ-48" value="Route" style="rounded=0;whiteSpace=wrap;html=1;strokeColor=#DAF06C;" vertex="1" parent="1">
          <mxGeometry x="210" y="40" width="120" height="60" as="geometry" />
        </mxCell>
        <mxCell id="dBR_JviWxrnZ7EOf8OUJ-49" value="AuthProvider" style="rounded=0;whiteSpace=wrap;html=1;strokeColor=#DAF06C;" vertex="1" parent="1">
          <mxGeometry x="370" y="130" width="120" height="60" as="geometry" />
        </mxCell>
        <mxCell id="dBR_JviWxrnZ7EOf8OUJ-50" value="MainStack" style="rounded=0;whiteSpace=wrap;html=1;strokeColor=#DAF06C;" vertex="1" parent="1">
          <mxGeometry x="590" y="130" width="120" height="60" as="geometry" />
        </mxCell>
        <mxCell id="dBR_JviWxrnZ7EOf8OUJ-51" value="PlantChecker&lt;br&gt;Navigator" style="rounded=0;whiteSpace=wrap;html=1;strokeColor=#6078F0;" vertex="1" parent="1">
          <mxGeometry x="830" y="710" width="120" height="60" as="geometry" />
        </mxCell>
        <mxCell id="dBR_JviWxrnZ7EOf8OUJ-59" value="" style="edgeStyle=orthogonalEdgeStyle;rounded=0;orthogonalLoop=1;jettySize=auto;html=1;exitX=0.5;exitY=1;exitDx=0;exitDy=0;entryX=0;entryY=0.5;entryDx=0;entryDy=0;" edge="1" parent="1" source="dBR_JviWxrnZ7EOf8OUJ-51" target="dBR_JviWxrnZ7EOf8OUJ-58">
          <mxGeometry relative="1" as="geometry" />
        </mxCell>
        <mxCell id="dBR_JviWxrnZ7EOf8OUJ-64" value="" style="edgeStyle=orthogonalEdgeStyle;rounded=0;orthogonalLoop=1;jettySize=auto;html=1;" edge="1" parent="1" source="dBR_JviWxrnZ7EOf8OUJ-54" target="dBR_JviWxrnZ7EOf8OUJ-63">
          <mxGeometry relative="1" as="geometry" />
        </mxCell>
        <mxCell id="dBR_JviWxrnZ7EOf8OUJ-54" value="PlantID" style="rounded=0;whiteSpace=wrap;html=1;" vertex="1" parent="1">
          <mxGeometry x="910" y="960" width="120" height="60" as="geometry" />
        </mxCell>
        <mxCell id="dBR_JviWxrnZ7EOf8OUJ-56" value="NewPantPage" style="rounded=0;whiteSpace=wrap;html=1;" vertex="1" parent="1">
          <mxGeometry x="1070" y="880" width="120" height="60" as="geometry" />
        </mxCell>
        <mxCell id="dBR_JviWxrnZ7EOf8OUJ-61" value="" style="edgeStyle=orthogonalEdgeStyle;rounded=0;orthogonalLoop=1;jettySize=auto;html=1;" edge="1" parent="1" source="dBR_JviWxrnZ7EOf8OUJ-58" target="dBR_JviWxrnZ7EOf8OUJ-60">
          <mxGeometry relative="1" as="geometry" />
        </mxCell>
        <mxCell id="dBR_JviWxrnZ7EOf8OUJ-58" value="PlantAnalysis" style="rounded=0;whiteSpace=wrap;html=1;" vertex="1" parent="1">
          <mxGeometry x="1070" y="1050" width="120" height="60" as="geometry" />
        </mxCell>
        <mxCell id="dBR_JviWxrnZ7EOf8OUJ-60" value="AnalysisResult&lt;br&gt;Modal???" style="rounded=0;whiteSpace=wrap;html=1;" vertex="1" parent="1">
          <mxGeometry x="1230" y="1050" width="120" height="60" as="geometry" />
        </mxCell>
        <mxCell id="dBR_JviWxrnZ7EOf8OUJ-65" style="edgeStyle=orthogonalEdgeStyle;rounded=0;orthogonalLoop=1;jettySize=auto;html=1;entryX=0.5;entryY=0;entryDx=0;entryDy=0;" edge="1" parent="1" source="dBR_JviWxrnZ7EOf8OUJ-63" target="dBR_JviWxrnZ7EOf8OUJ-58">
          <mxGeometry relative="1" as="geometry" />
        </mxCell>
        <mxCell id="dBR_JviWxrnZ7EOf8OUJ-63" value="Redirect to&amp;nbsp;" style="rounded=0;whiteSpace=wrap;html=1;" vertex="1" parent="1">
          <mxGeometry x="1085" y="965" width="90" height="50" as="geometry" />
        </mxCell>
        <mxCell id="dBR_JviWxrnZ7EOf8OUJ-67" value="AccountPage" style="rounded=0;whiteSpace=wrap;html=1;strokeColor=#4AF0A8;" vertex="1" parent="1">
          <mxGeometry x="825" y="1130" width="120" height="60" as="geometry" />
        </mxCell>
      </root>
    </mxGraphModel>
  </diagram>
</mxfile>
